<?xml version="1.0" encoding="utf-8"?>
<!-- Generator: Adobe Illustrator 24.1.0, SVG Export Plug-In . SVG Version: 6.00 Build 0)  -->
<svg version="1.1" id="Camada_1" xmlns="http://www.w3.org/2000/svg" xmlns:xlink="http://www.w3.org/1999/xlink" x="0px" y="0px"
	 viewBox="0 0 1080 1080" style="enable-background:new 0 0 1080 1080;" xml:space="preserve">
<style type="text/css">
	.st0{fill:url(#SVGID_1_);stroke:url(#SVGID_2_);stroke-width:3;stroke-miterlimit:10;}
</style>
<g>
	<g>
		<path d="M341.29,710.17c0,3.74-0.79,7.05-2.37,9.94c-1.58,2.89-3.73,5.3-6.44,7.26c-2.72,1.95-5.88,3.44-9.48,4.45
			c-3.61,1.02-7.44,1.53-11.49,1.53c-1.7,0-3.61-0.12-5.71-0.37c-2.11-0.24-4.28-0.59-6.51-1.03c-2.23-0.45-4.46-0.97-6.69-1.58
			c-2.23-0.61-4.36-1.28-6.38-2.01l2.92-5.84l3.89,0.85c0.97,0.24,2.11,0.53,3.4,0.85c1.3,0.33,2.67,0.61,4.13,0.85
			c1.46,0.24,2.92,0.47,4.38,0.67c1.46,0.2,2.8,0.3,4.01,0.3h4.99c2.68,0,5.23-0.37,7.66-1.09c2.43-0.73,4.58-1.8,6.44-3.22
			c1.86-1.42,3.34-3.16,4.44-5.23s1.64-4.44,1.64-7.11c0-1.13-0.29-2.39-0.85-3.77c-0.57-1.38-1.18-2.51-1.82-3.4v0.12
			c-1.14-1.54-2.41-2.78-3.83-3.71c-1.42-0.93-2.88-1.64-4.38-2.13c-1.5-0.49-3.08-0.83-4.74-1.03c-1.66-0.2-3.3-0.38-4.92-0.55
			c-2.76-0.16-5.55-0.42-8.39-0.79c-2.84-0.37-5.55-1.36-8.15-2.98v0.12c-2.92-1.62-5.33-3.97-7.23-7.05
			c-1.91-3.08-2.86-6.57-2.86-10.46c0-5.35,1.96-9.93,5.9-13.74c3.93-3.81,9.18-6.4,15.75-7.78h-0.12c0.97-0.16,2.41-0.34,4.32-0.55
			c1.9-0.2,4.03-0.3,6.38-0.3c1.3,0,2.8,0.14,4.5,0.42c1.7,0.28,3.47,0.62,5.29,1.02c1.82,0.4,3.63,0.88,5.41,1.43
			c1.78,0.56,3.4,1.12,4.86,1.67l-2.8,6.52c-2.11-0.73-4.03-1.36-5.78-1.88c-1.74-0.53-3.4-0.93-4.99-1.22
			c-1.58-0.28-3.12-0.5-4.62-0.67c-1.5-0.16-3.06-0.24-4.68-0.24c-2.51,0-5.09,0.3-7.72,0.91c-2.64,0.61-5.05,1.52-7.23,2.74
			c-2.19,1.22-3.99,2.8-5.41,4.74c-1.42,1.95-2.13,4.26-2.13,6.93c0,0.89,0.16,1.84,0.49,2.86s0.77,2.01,1.34,2.98
			c0.57,0.97,1.22,1.91,1.95,2.8c0.73,0.89,1.5,1.62,2.32,2.19c2.11,1.3,4.33,2.13,6.64,2.49c2.32,0.37,4.65,0.63,7.01,0.79
			c2.76,0.16,5.75,0.57,8.96,1.22s6.2,1.83,8.96,3.54c1.46,0.98,2.78,2.13,3.96,3.48c1.18,1.34,2.19,2.78,3.05,4.33
			c0.85,1.54,1.52,3.15,2.01,4.82C341.05,706.9,341.29,708.54,341.29,710.17z"/>
		<path d="M356.49,732.48v-80.13h46.45v7.05h-39.52v22.5h26.63v7.05h-26.63v36.48h42.19v7.05H356.49z"/>
		<path d="M422.15,701.96v30.52h-6.93v-80.13h22.92c3.48,0,6.69,0.69,9.64,2.07c2.95,1.38,5.52,3.22,7.7,5.53
			c2.18,2.31,3.9,4.95,5.15,7.9c1.25,2.96,1.88,6.02,1.88,9.18c0,2.43-0.32,4.82-0.97,7.17c-0.65,2.35-1.62,4.52-2.92,6.51
			c-1.3,1.99-2.86,3.75-4.68,5.29c-1.82,1.54-3.87,2.8-6.14,3.77c1.62,2.11,3.26,4.24,4.92,6.38c1.66,2.15,3.3,4.28,4.92,6.38
			l15.32,19.94h-8.88l-23.59-30.52H422.15z M422.15,659.4v35.51h15.99c2.44,0,4.74-0.46,6.9-1.4c2.15-0.93,4-2.19,5.55-3.77
			c1.55-1.58,2.77-3.47,3.66-5.65c0.89-2.19,1.34-4.5,1.34-6.93s-0.45-4.72-1.34-6.87c-0.9-2.15-2.11-4.03-3.66-5.65
			c-1.55-1.62-3.4-2.9-5.55-3.83c-2.16-0.93-4.46-1.4-6.9-1.4H422.15z"/>
		<path d="M552.74,649.43v83.05h-6.93v-63.11l-27.6,34.17l-27.85-34.53v63.47h-6.93v-83.17l34.72,42.92L552.74,649.43z"/>
		<path d="M609.71,651.62c5.58,0,10.84,1.08,15.78,3.22c4.94,2.15,9.25,5.07,12.93,8.75c3.68,3.69,6.58,8.03,8.68,13.01
			c2.11,4.98,3.16,10.27,3.16,15.87s-1.05,10.88-3.16,15.87c-2.11,4.98-5,9.32-8.68,13.01c-3.68,3.69-7.99,6.61-12.93,8.76
			c-4.94,2.15-10.2,3.22-15.78,3.22c-5.67,0-10.99-1.07-15.97-3.22c-4.98-2.15-9.31-5.07-12.99-8.76c-3.68-3.69-6.6-8.03-8.74-13.01
			c-2.14-4.99-3.21-10.28-3.21-15.87s1.07-10.88,3.21-15.87c2.15-4.99,5.06-9.32,8.74-13.01c3.68-3.69,8.01-6.61,12.99-8.75
			C598.72,652.69,604.04,651.62,609.71,651.62z M643.33,692.47c0-4.7-0.88-9.1-2.62-13.19c-1.75-4.09-4.14-7.66-7.19-10.7
			c-3.04-3.04-6.62-5.45-10.72-7.23s-8.46-2.68-13.09-2.68c-4.71,0-9.14,0.89-13.28,2.68c-4.14,1.78-7.73,4.19-10.78,7.23
			c-3.04,3.04-5.46,6.61-7.25,10.7c-1.79,4.1-2.68,8.49-2.68,13.19c0,4.7,0.89,9.1,2.68,13.19c1.79,4.09,4.2,7.66,7.25,10.7
			c3.04,3.04,6.64,5.45,10.78,7.23c4.14,1.78,8.57,2.68,13.28,2.68c4.63,0,8.99-0.89,13.09-2.68c4.1-1.78,7.67-4.2,10.72-7.23
			c3.05-3.04,5.44-6.61,7.19-10.7C642.45,701.58,643.33,697.18,643.33,692.47z"/>
		<path d="M726.98,652.1v81.59l-53.74-64.08v62.87h-6.93v-81.47l53.75,64.2V652.1H726.98z"/>
		<path d="M744.86,732.48v-80.13h46.45v7.05h-39.52v22.5h26.63v7.05h-26.63v36.48h42.19v7.05H744.86z"/>
	</g>
	<linearGradient id="SVGID_1_" gradientUnits="userSpaceOnUse" x1="434.3317" y1="481.0343" x2="636.0098" y2="481.0343">
		<stop  offset="0" style="stop-color:#660099"/>
		<stop  offset="1" style="stop-color:#F76323"/>
	</linearGradient>
	<linearGradient id="SVGID_2_" gradientUnits="userSpaceOnUse" x1="432.2104" y1="481.0343" x2="638.131" y2="481.0343">
		<stop  offset="0" style="stop-color:#660099"/>
		<stop  offset="1" style="stop-color:#F76323"/>
	</linearGradient>
	<path class="st0" d="M434.33,446.7l97.84-97.84l29.17,29.17l-68.67,68.67l68.67,68.67l-29.17,29.17l-68.67-68.67l0,0L434.33,446.7z
		 M606.84,486.2L606.84,486.2l-68.68-68.67l-29.17,29.17l68.67,68.67L509,584.04l29.17,29.17l97.84-97.84L606.84,486.2z"/>
</g>
</svg>
